<?xml version="1.0" encoding="UTF-8"?>
<svg width="19px" height="19px" viewBox="0 0 19 19" version="1.1" xmlns="http://www.w3.org/2000/svg" xmlns:xlink="http://www.w3.org/1999/xlink">
    <title>Group</title>
    <g id="Page-1" stroke="none" stroke-width="1" fill="none" fill-rule="evenodd">
        <g id="Group">
            <rect id="Rectangle" x="0" y="0" width="19" height="19"></rect>
            <path d="M6.53710938,4 C8.60546875,4 10.2109375,5.078125 12.2148438,5.078125 C13.0527344,5.078125 13.5566406,4.88476562 13.9609375,4.88476562 C14.453125,4.88476562 14.7929688,5.21875 14.7929688,5.7109375 L14.7929688,11.3769531 C14.7929688,11.5700906 14.7661636,11.7434768 14.7125533,11.8963777 C14.673767,11.8896035 14.6360485,11.8867188 14.5976562,11.8867188 L13.347,11.886 L13.3476562,10.6367188 C13.3476562,10.257023 13.0655024,9.94322779 12.6994268,9.89356537 L12.5976562,9.88671875 C12.1834427,9.88671875 11.8476562,10.2225052 11.8476562,10.6367188 L11.847,11.886 L10.5976562,11.8867188 C10.2371766,11.8867188 9.93609592,12.1410362 9.86404686,12.4800384 C8.80928314,12.1765221 7.78320888,11.8105469 6.578125,11.8105469 C6.00390625,11.8105469 5.59375,11.9394531 5.41796875,11.9921875 L5.41796875,15.1035156 C5.41796875,15.5019531 5.09570312,15.8183594 4.70898438,15.8183594 C4.32226562,15.8183594 4,15.4960938 4,15.1035156 L4,5.40039062 C4,4.8671875 4.24609375,4.5625 4.6796875,4.36328125 C5.20117188,4.12304688 5.6875,4 6.53710938,4 Z M12.5976562,10.1367188 C12.8737986,10.1367188 13.0976562,10.3605764 13.0976562,10.6367188 L13.097,12.136 L14.5976562,12.1367188 C14.8737986,12.1367188 15.0976562,12.3605764 15.0976562,12.6367188 C15.0976562,12.9128611 14.8737986,13.1367188 14.5976562,13.1367188 L13.097,13.136 L13.0976562,14.6367188 C13.0976562,14.9128611 12.8737986,15.1367188 12.5976562,15.1367188 C12.3215139,15.1367188 12.0976562,14.9128611 12.0976562,14.6367188 L12.097,13.136 L10.5976562,13.1367188 C10.3215139,13.1367188 10.0976562,12.9128611 10.0976562,12.6367188 C10.0976562,12.3605764 10.3215139,12.1367188 10.5976562,12.1367188 L12.097,12.136 L12.0976562,10.6367188 C12.0976562,10.3605764 12.3215139,10.1367188 12.5976562,10.1367188 Z" id="Combined-Shape" fill="#FFFFFF"></path>
        </g>
    </g>
</svg>